<?xml version="1.0" encoding="UTF-8"?>
<svg id="Layer_1" xmlns="http://www.w3.org/2000/svg" viewBox="0 0 36.31 39.18">
  <defs>
    <style>
      .cls-1 {
        fill: #010101;
      }
    </style>
  </defs>
  <path class="cls-1" d="M34.81,39.18h-11.6c-.83,0-1.5-.67-1.5-1.5v-13.86h-7.12v13.86c0,.83-.67,1.5-1.5,1.5H1.5c-.83,0-1.5-.67-1.5-1.5V14.58c0-.46.21-.9.57-1.18L17.23.32c.55-.43,1.31-.43,1.86,0l16.66,13.08c.36.28.57.72.57,1.18v23.09c0,.83-.67,1.5-1.5,1.5ZM24.72,36.17h8.59V15.31L18.16,3.41,3,15.31v20.86h8.59v-13.86c0-.83.67-1.5,1.5-1.5h10.12c.83,0,1.5.67,1.5,1.5v13.86Z"/>
</svg>